# xmcd
#
# Track frame offsets:
#	150
#	19342
#	35285
#	49517
#	66392
#	83440
#	99129
#	116135
#	132175
#	150710
#
# Disc length: 2224 seconds
#
# Revision: 0
# Processed by: cddbd v1.5.2PL0 Copyright (c) Steve Scherf et al.
# Submitted via: EasyCDDAExtractor 10.0.5.1
#
DISCID=7508ae0a
DTITLE=eysuhl™ 김재희 - 김재희 [1995 Jigu jcds0510] 애증의 강
DYEAR=1995
DGENRE=Korean Pops
TTITLE0=애증의 강
TTITLE1=잃었던 나를 찾아서
TTITLE2=아네모네
TTITLE3=초원의 별
TTITLE4=삼포로 가는 길
TTITLE5=레인코트의 여인
TTITLE6=서울의 지붕밑
TTITLE7=무정의 여심
TTITLE8=믿어주오
TTITLE9=왕십리
EXTD=
EXTT0=
EXTT1=
EXTT2=
EXTT3=
EXTT4=
EXTT5=
EXTT6=
EXTT7=
EXTT8=
EXTT9=
PLAYORDER=
